<svg xmlns="http://www.w3.org/2000/svg" width="41" height="41" viewBox="0 0 41 41" fill="none">
  <g clip-path="url(#clip0_1259_6393)">
    <path d="M29.8566 25.2515C31.5087 27.5764 31.2926 30.8214 29.2083 32.9057L23.2978 38.8162L22.603 38.1213C20.496 36.0144 19.621 33.1419 19.978 30.3992" stroke="#FD7E14" stroke-width="2" stroke-miterlimit="10" stroke-linecap="round" stroke-linejoin="round"/>
    <path d="M15.3599 10.7217C13.0276 8.97244 9.70375 9.15853 7.58234 11.2799L1.67188 17.1904L2.36672 17.8853C4.47648 19.995 7.35383 20.8696 10.0998 20.5088" stroke="#FD7E14" stroke-width="2" stroke-miterlimit="10" stroke-linecap="round" stroke-linejoin="round"/>
    <path d="M37.6855 12.9912C35.2113 20.0947 30.0658 26.1343 23.1023 29.653L21.9914 30.2143L15.6638 31.1829L9.30469 24.8237L10.2733 18.4962L10.4583 18.1301C14.1227 10.8783 20.5091 5.61623 27.9627 3.26826C31.5447 2.1399 35.373 1.68389 39.2645 2.00475L39.3003 2.00772C39.4636 5.80928 38.8923 9.5267 37.6855 12.9912Z" stroke="#FD7E14" stroke-width="2" stroke-miterlimit="10" stroke-linecap="round" stroke-linejoin="round"/>
    <path d="M28.0742 3.38025L37.5733 12.8792" stroke="#FD7E14" stroke-width="2" stroke-miterlimit="10" stroke-linecap="round" stroke-linejoin="round"/>
    <path d="M24.5952 19.8586C26.528 19.8586 28.0948 18.2918 28.0948 16.359C28.0948 14.4263 26.528 12.8595 24.5952 12.8595C22.6625 12.8595 21.0957 14.4263 21.0957 16.359C21.0957 18.2918 22.6625 19.8586 24.5952 19.8586Z" stroke="#FD7E14" stroke-width="2" stroke-miterlimit="10" stroke-linecap="round" stroke-linejoin="round"/>
    <path d="M21.8238 30.0464L10.4414 18.6639" stroke="#FD7E14" stroke-width="2" stroke-miterlimit="10" stroke-linecap="round" stroke-linejoin="round"/>
    <path d="M9.29031 31.5217L5.51953 35.2926" stroke="#FD7E14" stroke-width="2" stroke-miterlimit="10" stroke-linecap="round" stroke-linejoin="round"/>
    <path d="M5.93297 28.1652L2.16211 31.9359" stroke="#FD7E14" stroke-width="2" stroke-miterlimit="10" stroke-linecap="round" stroke-linejoin="round"/>
    <path d="M12.6468 34.8785L8.87598 38.6493" stroke="#FD7E14" stroke-width="2" stroke-miterlimit="10" stroke-linecap="round" stroke-linejoin="round"/>
  </g>
  <defs>
    <clipPath id="clip0_1259_6393">
      <rect width="40" height="40" fill="white" transform="translate(0.5 0.360352)"/>
    </clipPath>
  </defs>
</svg>