<svg xmlns="http://www.w3.org/2000/svg" width="41" height="41" viewBox="0 0 41 41" fill="none">
  <g clip-path="url(#clip0_1259_6411)">
    <path d="M12.5954 9.06348H6.85973L1.83887 19.1051H39.4951L34.4743 9.06348H28.7386" stroke="#FD7E14" stroke-width="2" stroke-miterlimit="10" stroke-linecap="round" stroke-linejoin="round"/>
    <path d="M11.8809 14.0844H29.4538" stroke="#FD7E14" stroke-width="2" stroke-miterlimit="10" stroke-linecap="round" stroke-linejoin="round"/>
    <path d="M39.4951 19.1051H1.83887V39.1885H39.4951V19.1051Z" stroke="#FD7E14" stroke-width="2" stroke-miterlimit="10" stroke-linecap="round" stroke-linejoin="round"/>
    <path d="M33.2194 25.3812H8.11523V32.9125H33.2194V25.3812Z" stroke="#FD7E14" stroke-width="2" stroke-miterlimit="10" stroke-linecap="round" stroke-linejoin="round"/>
    <path d="M18.2278 14.0843C15.6277 12.575 11.8809 9.83168 11.8809 6.55309C11.8809 3.7816 14.1309 1.53223 16.9017 1.53223C18.4005 1.53223 19.7466 2.18996 20.6673 3.23301C21.588 2.18996 22.9342 1.53223 24.433 1.53223C27.2038 1.53223 29.4538 3.7816 29.4538 6.55309C29.4538 9.83168 25.707 12.575 23.1069 14.0843H18.2278Z" stroke="#FD7E14" stroke-width="2" stroke-miterlimit="10" stroke-linecap="round" stroke-linejoin="round"/>
  </g>
  <defs>
    <clipPath id="clip0_1259_6411">
      <rect width="40" height="40" fill="white" transform="translate(0.666992 0.360352)"/>
    </clipPath>
  </defs>
</svg>