<svg xmlns="http://www.w3.org/2000/svg" width="48" height="48" viewBox="0 0 48 48" fill="none">
  <path d="M32.8208 4.3999C29.4644 4.3999 26.3896 5.60168 24 7.59678C21.6105 5.60168 18.5356 4.3999 15.1793 4.3999C7.57256 4.3999 1.40625 10.5663 1.40625 18.173C1.40625 21.4197 2.61019 24.3421 4.40906 26.7586C7.81866 31.3389 24 43.2596 24 43.2596C24 43.2596 40.1813 31.3389 43.5909 26.7585C45.3898 24.342 46.5938 21.4197 46.5938 18.1729C46.5938 10.5663 40.4274 4.3999 32.8208 4.3999Z" stroke="#FD7E14" stroke-width="2" stroke-miterlimit="10"/>
  <path d="M13.8729 22.8063C16.97 22.8063 19.4806 20.2956 19.4806 17.1986C19.4806 14.1015 16.97 11.5908 13.8729 11.5908C10.7758 11.5908 8.26514 14.1015 8.26514 17.1986C8.26514 20.2956 10.7758 22.8063 13.8729 22.8063Z" stroke="#FD7E14" stroke-width="2" stroke-miterlimit="10"/>
  <path d="M20.8199 28.4974C20.1727 25.2521 17.3083 22.8064 13.8727 22.8064C9.96023 22.8064 6.78857 25.9781 6.78857 29.8905" stroke="#FD7E14" stroke-width="2" stroke-miterlimit="10"/>
  <path d="M34.1273 22.8063C37.2244 22.8063 39.735 20.2956 39.735 17.1986C39.735 14.1015 37.2244 11.5908 34.1273 11.5908C31.0302 11.5908 28.5195 14.1015 28.5195 17.1986C28.5195 20.2956 31.0302 22.8063 34.1273 22.8063Z" stroke="#FD7E14" stroke-width="2" stroke-miterlimit="10"/>
  <path d="M27.1802 28.4972C27.8273 25.2519 30.6918 22.8062 34.1273 22.8062C38.0398 22.8062 41.2115 25.9778 41.2115 29.8903" stroke="#FD7E14" stroke-width="2" stroke-miterlimit="10"/>
  <path d="M24.0003 27.7446C27.0974 27.7446 29.6081 25.2339 29.6081 22.1368C29.6081 19.0397 27.0974 16.5291 24.0003 16.5291C20.9033 16.5291 18.3926 19.0397 18.3926 22.1368C18.3926 25.2339 20.9033 27.7446 24.0003 27.7446Z" stroke="#FD7E14" stroke-width="2" stroke-miterlimit="10"/>
  <path d="M31.0843 37.9072V34.8285C31.0843 30.916 27.9126 27.7444 24.0001 27.7444C20.0877 27.7444 16.916 30.916 16.916 34.8285V37.9072" stroke="#FD7E14" stroke-width="2" stroke-miterlimit="10"/>
</svg>