<svg xmlns="http://www.w3.org/2000/svg" width="48" height="48" viewBox="0 0 48 48" fill="none">
  <path d="M43.5906 34.4095V28.4827C43.5906 23.4178 39.4848 19.3119 34.4198 19.3119H31.6668C29.7969 19.3119 28.2811 17.796 28.2811 15.9261V13.7593H18.926V15.9261C18.926 17.796 17.4102 19.3119 15.5403 19.3119H9.89844" stroke="#FD7E14" stroke-width="2" stroke-miterlimit="10" stroke-linecap="round" stroke-linejoin="round"/>
  <path d="M9.89844 28.0815H16.9253C18.0124 30.6991 20.5925 32.5404 23.6035 32.5404C26.6144 32.5404 29.1945 30.6992 30.2817 28.0815H32.0306C33.5717 28.0815 34.821 29.3309 34.821 30.872V34.4096" stroke="#FD7E14" stroke-width="2" stroke-miterlimit="10" stroke-linecap="round" stroke-linejoin="round"/>
  <path d="M26.4033 7.13794V13.6963" stroke="#FD7E14" stroke-width="2" stroke-miterlimit="10" stroke-linecap="round" stroke-linejoin="round"/>
  <path d="M20.8027 13.6963V7.13794" stroke="#FD7E14" stroke-width="2" stroke-miterlimit="10" stroke-linecap="round" stroke-linejoin="round"/>
  <path d="M33.8848 34.4094H44.5257" stroke="#FD7E14" stroke-width="2" stroke-miterlimit="10" stroke-linecap="round" stroke-linejoin="round"/>
  <path d="M43.1269 42.7949C43.1269 44.8945 41.4248 46.5966 39.3251 46.5966C37.2256 46.5966 35.5234 44.8946 35.5234 42.7949C35.5234 40.6953 39.3251 36.1863 39.3251 36.1863C39.3251 36.1863 43.1269 40.6952 43.1269 42.7949Z" stroke="#FD7E14" stroke-width="2" stroke-miterlimit="10" stroke-linecap="round" stroke-linejoin="round"/>
  <path d="M30.2599 1.40356H16.9473V7.13804H30.2599V1.40356Z" stroke="#FD7E14" stroke-width="2" stroke-miterlimit="10" stroke-linecap="round" stroke-linejoin="round"/>
  <path d="M9.89828 15.522H3.47461V31.8716H9.89828V15.522Z" stroke="#FD7E14" stroke-width="2" stroke-miterlimit="10" stroke-linecap="round" stroke-linejoin="round"/>
</svg>