<svg width="20" height="20" viewBox="0 0 20 20" fill="none" xmlns="http://www.w3.org/2000/svg">
<g clip-path="url(#clip0_1259_6016)">
<path d="M6.39407 6.63038L6.71642 6.81329L7.03878 6.63038C9.07619 5.47446 11.5404 5.81607 13.1086 7.40764L14.535 6.37423L14.88 6.85042L15.225 7.32661C15.225 7.32661 10.3368 10.8682 10.3331 10.8709C10.0391 11.0839 9.93942 11.5211 10.1633 11.8213C10.3536 12.0764 10.7231 12.1608 11.0065 12.0087L11.0103 12.0067L13.9575 10.4526C14.4572 10.1851 15.0212 10.143 15.4276 10.1417C15.4547 10.1416 15.4811 10.1417 15.5067 10.1419C16.8119 10.153 18.054 9.65462 19.0066 8.74035L19.0205 8.72737L20.0018 7.84482V1.26953L15.9119 2.31035C14.8428 2.58241 13.7432 2.76607 12.6436 2.8562L9.54752 3.10991C8.65301 3.11583 7.7875 3.4389 7.10766 4.02113L5 6.0877C5.47999 6.19684 5.949 6.37784 6.39407 6.63038Z" fill="white"/>
<path d="M13.2503 12.1547L11.5588 13.0466C11.2877 13.1917 10.9921 13.2612 10.6989 13.2612C10.1322 13.2612 9.57423 13.0015 9.21887 12.5251C8.91513 12.1179 8.79498 11.6179 8.8804 11.1172C8.96523 10.6202 9.24098 10.191 9.6573 9.90753L12.1395 8.10914C10.9383 7.0045 9.12776 6.79689 7.61738 7.65389L6.71468 8.16606L5.81197 7.65389C5.21183 7.31338 4.555 7.14194 3.89523 7.14194C3.34522 7.14194 2.79325 7.26108 2.27026 7.50068C1.11995 8.02768 0.319251 9.0418 0.0734931 10.283C-0.194257 11.6351 0.28095 13.0421 1.31365 13.955L6.71472 18.7293L12.1157 13.955C12.6425 13.4894 13.0364 12.8547 13.2503 12.1547Z" fill="white"/>
</g>
<defs>
<clipPath id="clip0_1259_6016">
<rect width="20" height="20" fill="white"/>
</clipPath>
</defs>
</svg>
