<svg xmlns="http://www.w3.org/2000/svg" width="105" height="24" viewBox="0 0 105 24" fill="none">
  <g clip-path="url(#clip0_1259_6116)">
    <path d="M30.3594 17.3999H37.171V15.4603H32.4365V6.40356H30.3594V17.3999Z" fill="#8B888A"/>
    <path d="M41.2642 17.629C42.0889 17.629 42.8144 17.4457 43.4406 17.0792C44.0718 16.7076 44.5631 16.1959 44.9144 15.5443C45.2707 14.8876 45.4489 14.1316 45.4489 13.2763C45.4489 12.4261 45.2733 11.6752 44.922 11.0236C44.5707 10.3669 44.0794 9.85268 43.4482 9.48104C42.822 9.1094 42.094 8.92358 41.2642 8.92358C40.4496 8.92358 39.7293 9.10688 39.1031 9.47342C38.4769 9.83996 37.9857 10.3516 37.6293 11.0083C37.2729 11.6599 37.0947 12.4159 37.0947 13.2763C37.0947 14.1265 37.2678 14.88 37.614 15.5367C37.9653 16.1883 38.454 16.6999 39.0802 17.0716C39.7064 17.4432 40.4344 17.629 41.2642 17.629ZM41.2642 15.6894C40.6176 15.6894 40.1264 15.4731 39.7904 15.0403C39.4594 14.6025 39.294 14.0145 39.294 13.2763C39.294 12.5585 39.4518 11.9781 39.7675 11.5352C40.0882 11.0872 40.5871 10.8632 41.2642 10.8632C41.9209 10.8632 42.4147 11.0821 42.7456 11.52C43.0816 11.9578 43.2496 12.5432 43.2496 13.2763C43.2496 13.984 43.0842 14.5643 42.7533 15.0174C42.4275 15.4654 41.9311 15.6894 41.2642 15.6894Z" fill="#8B888A"/>
    <path d="M49.5568 17.629C49.9437 17.629 50.3 17.5832 50.6259 17.4916C50.9568 17.4 51.2572 17.2701 51.527 17.1021V17.9345C51.5372 18.24 51.4582 18.4945 51.2902 18.6981C51.1273 18.9069 50.9084 19.0621 50.6335 19.164C50.3586 19.2709 50.0659 19.3243 49.7554 19.3243C49.4651 19.3243 49.1953 19.2607 48.9459 19.1334C48.7015 19.0062 48.5131 18.8203 48.3808 18.576L46.4564 19.5076C46.772 20.0421 47.2226 20.4723 47.8081 20.7981C48.3935 21.129 49.0375 21.2945 49.7401 21.2945C50.3459 21.2945 50.9084 21.213 51.4277 21.0501C51.947 20.8923 52.3848 20.6505 52.7411 20.3247C53.1026 19.9989 53.3495 19.584 53.4819 19.08C53.5277 18.9018 53.5582 18.721 53.5735 18.5377C53.5939 18.3596 53.6041 18.1687 53.6041 17.965V9.15266H51.7866V9.61088C51.5066 9.39194 51.1884 9.22394 50.8321 9.10688C50.4808 8.98466 50.0914 8.92358 49.6637 8.92358C48.8746 8.92358 48.1873 9.11198 47.6019 9.48866C47.0164 9.8654 46.5608 10.3821 46.235 11.0389C45.9142 11.6905 45.7539 12.4363 45.7539 13.2763C45.7539 14.101 45.9117 14.8417 46.2274 15.4985C46.5481 16.1552 46.9935 16.6745 47.5637 17.0563C48.1339 17.4381 48.7982 17.629 49.5568 17.629ZM49.8928 15.781C49.4448 15.781 49.0783 15.669 48.7931 15.445C48.5081 15.2211 48.2968 14.9207 48.1594 14.544C48.0219 14.1621 47.9531 13.7396 47.9531 13.2763C47.9531 12.8181 48.0244 12.4007 48.167 12.024C48.3095 11.6421 48.5284 11.3392 48.8237 11.1152C49.124 10.8861 49.5059 10.7716 49.9691 10.7716C50.6208 10.7716 51.0866 11.0032 51.3666 11.4665C51.6466 11.9247 51.7866 12.528 51.7866 13.2763C51.7866 14.0247 51.644 14.6305 51.359 15.0937C51.079 15.552 50.5903 15.781 49.8928 15.781Z" fill="#8B888A"/>
    <path d="M58.5376 17.629C59.3624 17.629 60.0878 17.4457 60.714 17.0792C61.3451 16.7076 61.8365 16.1959 62.1875 15.5443C62.5439 14.8876 62.7221 14.1316 62.7221 13.2763C62.7221 12.4261 62.5469 11.6752 62.1953 11.0236C61.8443 10.3669 61.3529 9.85268 60.7216 9.48104C60.0955 9.1094 59.3674 8.92358 58.5376 8.92358C57.7231 8.92358 57.0027 9.10688 56.3765 9.47342C55.7504 9.83996 55.2591 10.3516 54.9027 11.0083C54.5464 11.6599 54.3682 12.4159 54.3682 13.2763C54.3682 14.1265 54.5413 14.88 54.8875 15.5367C55.2387 16.1883 55.7275 16.6999 56.3536 17.0716C56.9798 17.4432 57.7078 17.629 58.5376 17.629ZM58.5376 15.6894C57.8911 15.6894 57.3998 15.4731 57.0638 15.0403C56.7329 14.6025 56.5675 14.0145 56.5675 13.2763C56.5675 12.5585 56.7253 11.9781 57.0409 11.5352C57.3616 11.0872 57.8605 10.8632 58.5376 10.8632C59.1944 10.8632 59.6882 11.0821 60.0191 11.52C60.3551 11.9578 60.5231 12.5432 60.5231 13.2763C60.5231 13.984 60.3576 14.5643 60.0267 15.0174C59.7009 15.4654 59.2045 15.6894 58.5376 15.6894Z" fill="#8B888A"/>
    <path d="M63.6377 8.00726H65.7149V6.17456H63.6377V8.00726ZM63.6377 17.4H65.7149V9.15272H63.6377V17.4Z" fill="#8B888A"/>
    <path d="M67.0723 21.0654H69.1645V17.1021C69.4345 17.2701 69.7321 17.4 70.0579 17.4916C70.3891 17.5832 70.7479 17.629 71.1349 17.629C71.8933 17.629 72.5581 17.4381 73.1281 17.0563C73.6981 16.6745 74.1409 16.1552 74.4565 15.4985C74.7775 14.8417 74.9377 14.101 74.9377 13.2763C74.9377 12.4363 74.7751 11.6905 74.4493 11.0389C74.1283 10.3821 73.6753 9.8654 73.0897 9.48866C72.5041 9.11198 71.8171 8.92358 71.0281 8.92358C70.6003 8.92358 70.2085 8.98466 69.8521 9.10688C69.5005 9.22394 69.1849 9.39194 68.9053 9.61088V9.15266H67.0723V21.0654ZM70.7989 15.781C70.1065 15.781 69.6181 15.552 69.3325 15.0937C69.0475 14.6305 68.9053 14.0247 68.9053 13.2763C68.9053 12.528 69.0451 11.9247 69.3253 11.4665C69.6103 11.0032 70.0759 10.7716 70.7227 10.7716C71.1859 10.7716 71.5651 10.8861 71.8603 11.1152C72.1609 11.3392 72.3823 11.6421 72.5245 12.024C72.6673 12.4007 72.7387 12.8181 72.7387 13.2763C72.7387 13.7396 72.6697 14.1621 72.5323 14.544C72.3949 14.9207 72.1837 15.2211 71.8987 15.445C71.6137 15.669 71.2471 15.781 70.7989 15.781Z" fill="#8B888A"/>
    <path d="M78.7015 17.629C79.7803 17.629 80.6257 17.3872 81.2365 16.9036C81.8473 16.4199 82.1527 15.7556 82.1527 14.9105C82.1527 14.269 81.9541 13.7625 81.5575 13.3909C81.1651 13.0192 80.4985 12.7112 79.5565 12.4669C78.9151 12.3039 78.4363 12.1716 78.1207 12.0697C77.8105 11.968 77.6041 11.8687 77.5021 11.772C77.4055 11.6752 77.3575 11.5556 77.3575 11.413C77.3575 11.1738 77.4715 10.9905 77.7007 10.8632C77.9353 10.7359 78.2431 10.6851 78.6247 10.7105C79.4341 10.7716 79.8775 11.1178 79.9537 11.749L82.0765 11.3672C81.9697 10.6189 81.6031 10.0258 80.9767 9.58796C80.3509 9.14504 79.5517 8.92358 78.5791 8.92358C77.5813 8.92358 76.7845 9.15776 76.1887 9.62612C75.5935 10.0945 75.2953 10.7257 75.2953 11.52C75.2953 12.1512 75.5017 12.6501 75.9139 13.0167C76.3261 13.3782 77.0365 13.6887 78.0445 13.9483C78.6403 14.1061 79.0777 14.2334 79.3579 14.3301C79.6429 14.4268 79.8265 14.5261 79.9075 14.628C79.9891 14.7247 80.0299 14.8545 80.0299 15.0174C80.0299 15.277 79.9279 15.4807 79.7245 15.6283C79.5211 15.7708 79.2307 15.8421 78.8539 15.8421C78.3955 15.8421 78.0163 15.7327 77.7163 15.5137C77.4211 15.2949 77.2297 14.992 77.1433 14.605L75.0205 14.9257C75.1579 15.7861 75.5449 16.453 76.1815 16.9265C76.8229 17.3949 77.6629 17.629 78.7015 17.629Z" fill="#8B888A"/>
    <path d="M85.9843 17.6443C86.5801 17.6443 87.0991 17.545 87.5425 17.3464C87.9853 17.1479 88.3567 16.8832 88.6573 16.5523V17.3999H90.4897V9.15259H88.3975V13.3373C88.3975 13.8464 88.3387 14.2588 88.2217 14.5744C88.1101 14.885 87.9649 15.1217 87.7867 15.2846C87.6085 15.4424 87.4177 15.5493 87.2137 15.6053C87.0103 15.6613 86.8195 15.6893 86.6413 15.6893C86.1985 15.6893 85.8547 15.59 85.6105 15.3915C85.3711 15.193 85.1977 14.9461 85.0909 14.6508C84.9841 14.3555 84.9205 14.0628 84.9001 13.7726C84.8797 13.4773 84.8695 13.2355 84.8695 13.0471V9.15259H82.7617V13.7803C82.7617 13.9177 82.7719 14.1366 82.7923 14.437C82.8127 14.7373 82.8715 15.0708 82.9681 15.4373C83.0647 15.7988 83.2249 16.1475 83.4493 16.4835C83.6785 16.8195 83.9965 17.0969 84.4039 17.3159C84.8107 17.5348 85.3381 17.6443 85.9843 17.6443Z" fill="#8B888A"/>
    <path d="M91.6924 17.3999H93.7846V12.4057C93.7846 11.9323 93.9142 11.548 94.174 11.2526C94.4386 10.9523 94.7872 10.8021 95.2204 10.8021C95.6734 10.8021 96.0274 10.9549 96.2818 11.2603C96.541 11.5607 96.6712 11.9832 96.6712 12.5279V17.3999H98.7484V12.4057C98.7484 11.9323 98.878 11.548 99.1378 11.2526C99.4024 10.9523 99.751 10.8021 100.184 10.8021C100.637 10.8021 100.991 10.9549 101.245 11.2603C101.505 11.5607 101.635 11.9832 101.635 12.5279V17.3999H103.712V11.9781C103.712 11.077 103.47 10.349 102.986 9.7941C102.508 9.23412 101.798 8.9541 100.856 8.9541C100.326 8.9541 99.8404 9.06864 99.397 9.29772C98.9542 9.52686 98.6008 9.83994 98.3356 10.237C98.122 9.85014 97.8166 9.53958 97.4194 9.3054C97.0222 9.07122 96.5284 8.9541 95.938 8.9541C95.4388 8.9541 94.981 9.0534 94.5634 9.25194C94.1458 9.44538 93.7996 9.71268 93.5248 10.0537V9.15264H91.6924V17.3999Z" fill="#8B888A"/>
    <path d="M12.9375 0C6.31008 0 0.9375 5.37258 0.9375 12C7.56492 12 12.9375 6.62742 12.9375 0Z" fill="#8B888A"/>
    <path d="M12.9375 24C19.5649 24 24.9375 18.6274 24.9375 12C18.3101 12 12.9375 17.3726 12.9375 24Z" fill="#8B888A"/>
    <path d="M12.9375 0C19.5649 0 24.9375 5.37258 24.9375 12C18.3101 12 12.9375 6.62742 12.9375 0Z" fill="#8B888A"/>
    <path d="M12.9375 24C6.31008 24 0.937499 18.6274 0.9375 12C7.56492 12 12.9375 17.3726 12.9375 24Z" fill="#8B888A"/>
  </g>
  <defs>
    <clipPath id="clip0_1259_6116">
      <rect width="103.2" height="24" fill="white" transform="translate(0.9375)"/>
    </clipPath>
  </defs>
</svg>