<svg xmlns="http://www.w3.org/2000/svg" width="79" height="80" viewBox="0 0 79 80" fill="none">
  <path d="M69.1295 25.5872C69.7871 26.57 70.4183 27.7824 70.1079 29.0816C69.0367 28.4685 68.1751 27.4675 67.4919 26.4792C66.8039 25.4844 66.0895 24.4264 65.8447 23.2002C67.1959 23.5458 68.4055 24.5052 69.1295 25.5872Z" fill="#8B888A"/>
  <path d="M11.0546 29.0793C10.745 27.7798 11.3775 26.5679 12.0363 25.5857C12.7615 24.5043 13.9715 23.5458 15.3228 23.2012C15.0773 24.4272 14.3618 25.4847 13.6731 26.4789C12.989 27.4667 12.1262 28.4671 11.0546 29.0793Z" fill="#8B888A"/>
  <path d="M10.1111 31.5722C10.3528 30.5431 10.3474 29.4165 10.1174 28.4512C9.91504 27.6029 9.62064 26.4037 8.65168 25.999C7.94736 27.1288 7.66424 28.6673 8.07472 29.8201C8.37152 30.6539 8.90527 31.7564 10.0122 31.927C11.028 32.1612 12.0551 31.6193 12.8663 31.172C13.7683 30.6746 14.6518 29.8833 15.1886 28.9426C14.2039 28.4456 13.0825 28.8489 12.2388 29.2355C11.3294 29.6522 10.4939 30.5463 10.1111 31.5722Z" fill="#8B888A"/>
  <path d="M29.8244 32.5609V27.394H28.0604V29.2765H25.4144V27.394H23.6504V32.5609H25.4144V30.6851H28.0604V32.5609H29.8244Z" fill="#8B888A"/>
  <path d="M35.6737 27.394H37.6219L34.8575 30.8562V32.5609H33.087V30.8628L30.3555 27.394H32.3629L33.9953 29.4608L35.6737 27.394Z" fill="#8B888A"/>
  <path fill-rule="evenodd" clip-rule="evenodd" d="M43.7656 27.835C44.1145 28.1115 44.3119 28.5788 44.3119 29.2568C44.3119 29.8096 44.1737 30.2243 43.9104 30.514C43.555 30.922 42.9692 31.1063 42.2057 31.1129C41.9687 31.1195 39.9415 31.1129 39.9415 31.1129V32.5609H38.1709V27.394H42.1794C42.8902 27.394 43.4299 27.5388 43.7656 27.835ZM42.4558 29.6583C42.5085 29.5661 42.5348 29.4476 42.5348 29.2831C42.5348 29.112 42.5019 28.9672 42.4427 28.8882C42.3307 28.7236 42.1201 28.6446 41.7779 28.6446H39.9283V29.9084H41.7647C42.1333 29.9084 42.3505 29.8228 42.4558 29.6583Z" fill="#8B888A"/>
  <path d="M50.4597 31.2774V32.5609H45.0166V27.394H50.4141V28.6841H46.7542V29.3489H50.3085V30.606H46.7542V31.2774H50.4597Z" fill="#8B888A"/>
  <path fill-rule="evenodd" clip-rule="evenodd" d="M57.0679 27.9206C57.3055 28.1641 57.4167 28.4998 57.4167 28.9672C57.4167 29.3687 57.3183 29.7109 57.1535 29.9413C56.9695 30.1914 56.6863 30.402 56.3375 30.4547L57.8975 32.5609H55.9359L54.6527 30.7377H53.0535V32.5609H51.2959V27.394H55.4095C56.2255 27.394 56.7591 27.5915 57.0679 27.9206ZM55.6463 29.4016C55.6927 29.3226 55.7055 29.2172 55.7055 29.1317C55.7055 29.033 55.6927 28.9276 55.6463 28.8618C55.5543 28.6907 55.3703 28.6446 55.0935 28.6446H53.0599V29.5859H55.1263C55.4095 29.5859 55.5807 29.5332 55.6463 29.4016Z" fill="#8B888A"/>
  <path d="M49.5173 39.0414C49.5173 37.8603 48.767 37.2396 47.0169 37.0499C46.7324 37.0154 45.8962 36.9292 45.3703 36.8861C44.0168 36.7395 43.6116 36.662 43.6116 36.3171C43.6116 36.0068 43.9306 35.8602 45.1461 35.8602C46.0083 35.8602 46.4911 36.024 46.6807 36.274C46.7756 36.3947 46.81 36.4895 46.8187 36.5844H49.3016C49.2756 36.3774 49.1895 36.0843 49.0515 35.8258C48.6032 34.9636 47.5256 34.2739 45.2065 34.2739C42.5943 34.2739 41.1632 35.1964 41.1632 36.4034C41.1632 37.5672 41.9736 38.2482 44.1633 38.4466C44.4109 38.4678 44.9427 38.518 45.378 38.5591L45.4049 38.5617L45.4098 38.5622L45.4117 38.5623L45.6462 38.5845C46.7928 38.7052 47.1032 38.7827 47.1032 39.1449C47.1032 39.481 46.8014 39.6621 45.5341 39.6621C44.5513 39.6621 43.9737 39.5155 43.7668 39.2655C43.6806 39.1621 43.6202 39.0069 43.603 38.9034H41.1201C41.146 39.0758 41.1891 39.3518 41.2839 39.5759C41.7064 40.5242 42.8099 41.2484 45.3703 41.2484C48.1204 41.2484 49.5173 40.4725 49.5173 39.0414Z" fill="#8B888A"/>
  <path fill-rule="evenodd" clip-rule="evenodd" d="M31.9154 40.4554C32.174 40.1536 32.3033 39.6966 32.3033 39.2311C32.3033 38.8346 32.1998 38.4552 31.9843 38.2052C31.7257 37.869 31.2687 37.6276 30.786 37.5673C31.1136 37.5242 31.4239 37.3518 31.605 37.1276C31.8291 36.8603 31.9326 36.4982 31.9326 36.0586C31.9326 35.6189 31.8033 35.231 31.5102 34.9378C31.1826 34.6016 30.5877 34.3774 29.6566 34.3774H23.8115V41.145H29.8204C30.7774 41.145 31.5188 40.9381 31.9154 40.4554ZM29.5359 36.4638C29.5359 36.6276 29.4842 36.7655 29.398 36.8603C29.2773 36.9724 29.0531 37.0155 28.76 37.0155H26.0702V35.912H28.6997C29.0273 35.912 29.2514 35.9551 29.3721 36.0672C29.4842 36.162 29.5359 36.2999 29.5359 36.4638ZM29.7946 39.4294C29.6566 39.5587 29.4152 39.6105 29.01 39.6105H26.0702V38.4811H29.0359C29.4152 38.4811 29.6394 38.5328 29.7686 38.6449C29.8722 38.7483 29.9152 38.8777 29.9152 39.0501C29.9152 39.2139 29.8807 39.3432 29.7946 39.4294Z" fill="#8B888A"/>
  <path d="M40.4206 39.4639V41.145H33.291V34.3774H40.3603V36.0672H35.5669V36.9379H40.2224V38.5846H35.5669V39.4639H40.4206Z" fill="#8B888A"/>
  <path d="M57.9057 36.0758V34.3774H49.8281V36.0758H52.6817V41.145H55.0433V36.0758H57.9057Z" fill="#8B888A"/>
  <path d="M57.7013 47.1336H57.3213L57.2941 46.7677C57.1781 46.9529 56.9325 47.1752 56.4141 47.1752C55.5381 47.1752 55.1309 46.6472 55.1309 45.2991C55.1309 44.2569 55.3901 43.4185 56.4597 43.4185C57.3869 43.4185 57.6693 44.0253 57.6829 44.6785H57.2197C57.2061 44.2523 57.0157 43.8585 56.4693 43.8585C55.8117 43.8585 55.6213 44.2523 55.6213 45.3131C55.6213 46.4202 55.8581 46.7677 56.4789 46.7677C56.9141 46.7677 57.1685 46.5268 57.2525 46.2396V45.5493H56.3165V45.1277H57.6965V46.1933C57.6965 46.5116 57.6997 46.8513 57.7005 47.0221L57.7013 47.1034V47.1336Z" fill="#8B888A"/>
  <path fill-rule="evenodd" clip-rule="evenodd" d="M23.8992 46.2117H25.1962L25.4648 47.1336H25.9559L24.8812 43.4648H24.2836L23.1348 47.1336H23.6212L23.8992 46.2117ZM25.0804 45.7995H24.0242C24.0242 45.7995 24.4828 44.3172 24.492 44.2848C24.4967 44.2616 24.5708 43.9327 24.5708 43.9327L24.6221 44.176L24.6449 44.2848C24.6496 44.3079 25.0804 45.7995 25.0804 45.7995Z" fill="#8B888A"/>
  <path d="M29.472 43.4648H29.9167L29.0505 47.1336H28.4992C28.4992 47.1336 27.8831 44.2801 27.8831 44.1596C27.8785 44.2801 27.2485 47.1336 27.2485 47.1336H26.6973L25.8311 43.4648H26.3313C26.3313 43.4648 27.003 46.3692 27.003 46.4851C27.003 46.3692 27.6191 43.4648 27.6191 43.4648H28.1703C28.1703 43.4648 28.7864 46.3739 28.7864 46.4851C28.7864 46.3739 29.472 43.4648 29.472 43.4648Z" fill="#8B888A"/>
  <path fill-rule="evenodd" clip-rule="evenodd" d="M31.8182 46.2117H30.5212L30.2432 47.1336H29.7568L30.9056 43.4648H31.5032L32.578 47.1336H32.0869L31.8182 46.2117ZM30.6463 45.7995H31.7024C31.7024 45.7995 31.2716 44.3079 31.267 44.2848L31.232 44.1178L31.1928 43.9327C31.1928 43.9327 31.1188 44.2616 31.1141 44.2848C31.1048 44.3172 30.6463 45.7995 30.6463 45.7995Z" fill="#8B888A"/>
  <path fill-rule="evenodd" clip-rule="evenodd" d="M34.3635 43.4648C34.9286 43.4648 35.2344 43.7288 35.2344 44.4978C35.2344 45.151 34.9889 45.3687 34.7341 45.4428L35.4382 47.1336H34.9286L34.2755 45.5355H33.3861V47.1336H32.9229V43.4648H34.3635ZM34.2941 45.1185C34.66 45.1185 34.748 44.9286 34.748 44.5117C34.748 44.0392 34.609 43.8956 34.2709 43.8956H33.3907V45.1185H34.2941Z" fill="#8B888A"/>
  <path fill-rule="evenodd" clip-rule="evenodd" d="M38.3181 45.239C38.3181 46.1052 38.2533 46.4572 38.068 46.7213C37.8827 46.9761 37.5909 47.1336 37.1183 47.1336H35.8584V43.4648H37.0859C37.5492 43.4648 37.9105 43.6038 38.0773 43.854C38.2626 44.1226 38.3181 44.4561 38.3181 45.239ZM37.0211 46.6981C37.3037 46.6981 37.5399 46.624 37.6603 46.4619C37.7901 46.2859 37.8271 45.9292 37.8271 45.239C37.8271 44.66 37.7946 44.3496 37.6603 44.1504C37.5353 43.979 37.2944 43.9048 37.0118 43.9048H36.3262V46.6981H37.0211Z" fill="#8B888A"/>
  <path d="M43.2054 43.4648H43.6501L42.7839 47.1336H42.2326C42.2326 47.1336 41.6165 44.2801 41.6165 44.1596C41.6119 44.2801 40.9819 47.1336 40.9819 47.1336H40.4307L39.5645 43.4648H40.0647C40.0647 43.4648 40.7364 46.3692 40.7364 46.4851C40.7364 46.3692 41.3525 43.4648 41.3525 43.4648H41.9037C41.9037 43.4648 42.5198 46.3739 42.5198 46.4851C42.5198 46.3739 43.2054 43.4648 43.2054 43.4648Z" fill="#8B888A"/>
  <path d="M44.4691 43.4648V47.1336H43.9873V43.4648H44.4691Z" fill="#8B888A"/>
  <path d="M47.4854 43.4648V47.1336H46.9526L45.5861 44.2893V47.1336H45.1367V43.4648H45.6973L47.0314 46.2673V43.4648H47.4854Z" fill="#8B888A"/>
  <path d="M50.4891 43.4648V47.1336H49.9563L48.59 44.2893V47.1336H48.1406V43.4648H48.7012L50.0355 46.2673V43.4648H50.4891Z" fill="#8B888A"/>
  <path d="M51.6261 43.4648V47.1336H51.1445V43.4648H51.6261Z" fill="#8B888A"/>
  <path d="M54.6418 43.4648V47.1336H54.109L52.7426 44.2893V47.1336H52.293V43.4648H52.8538L54.1882 46.2673V43.4648H54.6418Z" fill="#8B888A"/>
  <path d="M29.1144 54.3642L28.5836 52.7305L28.0527 54.3642H26.335L27.7246 55.374L27.1938 57.0078L28.5836 55.998L29.9734 57.0078L29.4425 55.374L30.8322 54.3642H29.1144Z" fill="#8B888A"/>
  <path d="M35.2532 54.3647L34.7116 52.731L34.1699 54.3647H32.417L33.8352 55.3744L33.2935 57.0082L34.7116 55.9985L36.1297 57.0082L35.588 55.3744L37.0061 54.3647H35.2532Z" fill="#8B888A"/>
  <path d="M41.3333 54.3647L40.7916 52.731L40.25 54.3647H38.4971L39.9151 55.3744L39.3735 57.0082L40.7916 55.9985L42.2097 57.0082L41.668 55.3744L43.0862 54.3647H41.3333Z" fill="#8B888A"/>
  <path d="M47.4124 54.3647L46.8707 52.731L46.3291 54.3647H44.5762L45.9943 55.3744L45.4526 57.0082L46.8707 55.9985L48.2888 57.0082L47.7471 55.3744L49.1653 54.3647H47.4124Z" fill="#8B888A"/>
  <path d="M53.5302 54.3647L52.9998 52.731L52.4686 54.3647H50.751L52.1406 55.3744L51.6102 57.0082L52.9998 55.9985L54.3894 57.0082L53.8582 55.3744L55.2486 54.3647H53.5302Z" fill="#8B888A"/>
  <path d="M6.98357 34.3491C7.48309 35.1112 8.25605 36.0657 9.38309 36.0385C10.408 36.0897 11.2934 35.3903 11.9907 34.8065C12.7416 34.1778 13.4195 33.2584 13.7056 32.2644C12.6574 31.9594 11.6538 32.5244 10.9054 33.0572C10.1239 33.6138 9.52285 34.6324 9.39373 35.6782C9.38405 34.6304 9.10045 33.5483 8.64325 32.6765C8.22525 31.8796 7.64277 30.8023 6.60357 30.5869C6.19413 31.827 6.32477 33.3443 6.98357 34.3491Z" fill="#8B888A"/>
  <path d="M9.71627 40.1431C8.67027 40.3184 7.64996 39.6775 6.98732 38.9237C6.1342 37.9531 5.62659 36.6511 5.73011 35.3477C6.80467 35.3749 7.61851 36.3038 8.22003 37.0062C8.86787 37.7627 9.39867 38.758 9.65331 39.7847C9.54131 38.7615 9.88484 37.6566 10.5225 36.9739C11.138 36.3149 12.0003 35.5966 13.0731 35.7119C13.05 36.7494 12.5299 37.7379 11.9935 38.4782C11.4935 39.1681 10.7232 40.0215 9.71627 40.1431Z" fill="#8B888A"/>
  <path d="M7.78421 43.5908C8.74757 44.218 9.91597 44.8388 11.1439 44.369C12.1512 44.0126 12.7917 42.9986 13.1856 42.0679C13.6029 41.0817 13.8816 39.9446 13.6887 38.8652C12.5817 38.9635 11.6638 39.7555 11.1763 40.7223C10.6666 41.733 10.5688 42.936 10.9604 43.9957C10.3819 42.9056 9.53589 42.0235 8.63973 41.2084C7.82509 40.4676 6.65165 39.6871 5.46973 39.8339C5.69461 41.2951 6.58629 42.811 7.78421 43.5908Z" fill="#8B888A"/>
  <path d="M13.6257 48.3191C14.5737 47.7524 14.9552 46.5599 15.1111 45.5381C15.2792 44.4361 15.272 43.2207 14.8143 42.1753C13.7145 42.4825 12.9595 43.4724 12.7103 44.5567C12.4469 45.7022 12.6691 46.923 13.3098 47.8984C12.4582 46.9214 11.3258 46.1147 10.2406 45.549C9.19234 45.0026 7.90634 44.3435 6.64746 44.7415C7.2545 46.2231 8.55306 47.6024 9.99226 48.173C11.1068 48.6147 12.4627 49.0516 13.6257 48.3191Z" fill="#8B888A"/>
  <path d="M18.1194 48.7025C18.2585 49.7662 18.2546 51.1153 17.4288 51.934C16.3968 52.9903 14.7996 52.7865 13.5678 52.5541C11.914 52.2419 10.0524 51.1139 9.05469 49.6121C10.2732 48.9411 11.7636 49.3703 12.97 49.7178L13.0388 49.7375C14.3855 50.125 15.8205 50.749 17.0207 51.6016C16.0629 50.7362 15.3651 49.4659 15.3309 48.1856C15.3002 47.0405 15.7972 45.8154 16.8668 45.2695C17.6136 46.2496 17.9632 47.5079 18.1194 48.7025Z" fill="#8B888A"/>
  <path d="M22.9122 54.9459C23.5204 53.7882 22.9178 52.4295 22.4377 51.4253C21.87 50.2381 21.0944 49.0281 19.9844 48.1592C18.9186 49.0777 19.0199 50.3921 19.3368 51.5343C19.7136 52.8925 21.0199 54.0502 22.3726 54.71C20.806 54.1257 19.095 53.7751 17.4672 53.6716L17.3023 53.6609C15.9946 53.5757 14.2921 53.4649 13.25 54.4219C14.8256 55.7613 17.0636 56.5341 19.0361 56.494C20.3579 56.4671 22.1715 56.3107 22.9122 54.9459Z" fill="#8B888A"/>
  <path d="M71.0488 31.5758C70.6672 30.5492 69.832 29.654 68.9232 29.2364C68.0792 28.8492 66.9584 28.4452 65.9736 28.9413C66.5096 29.8824 67.392 30.6744 68.2936 31.1724C69.104 31.6203 70.1304 32.1628 71.1464 31.9296C72.2536 31.76 72.7888 30.6578 73.0864 29.824C73.4984 28.6717 73.2168 27.1329 72.5136 26.0024C71.544 26.4065 71.248 27.6054 71.0456 28.4536C70.8144 29.4192 70.808 30.5462 71.0488 31.5758Z" fill="#8B888A"/>
  <path d="M70.2533 33.0597C71.0341 33.6165 71.6333 34.6345 71.7621 35.6796C71.7733 34.6324 72.0581 33.5513 72.5157 32.6804C72.9341 31.8837 73.5181 30.8069 74.5573 30.5923C74.9653 31.8328 74.8333 33.35 74.1733 34.3542C73.6741 35.1149 72.9013 36.0675 71.7765 36.042C70.7501 36.0944 69.8637 35.3932 69.1661 34.8083C68.4157 34.1789 67.7389 33.259 67.4541 32.2648C68.5021 31.9605 69.5053 32.5263 70.2533 33.0597Z" fill="#8B888A"/>
  <path d="M71.4972 39.7914C71.6116 38.7674 71.2692 37.6602 70.6308 36.9761C70.0164 36.3166 69.1548 35.5977 68.082 35.7122C68.1036 36.7497 68.6228 37.7386 69.1588 38.4794C69.658 39.1694 70.4268 40.0227 71.4332 40.1457C72.4796 40.3229 73.5012 39.6823 74.1652 38.9286C75.0188 37.9587 75.5276 36.6571 75.426 35.3535C74.3508 35.3801 73.5364 36.3082 72.934 37.0102C72.2844 37.7671 71.7524 38.7635 71.4972 39.7914Z" fill="#8B888A"/>
  <path d="M69.9741 40.7242C70.4829 41.7355 70.5797 42.9388 70.1869 43.9981C70.7661 42.9081 71.6133 42.0266 72.5101 41.2121C73.3253 40.4718 74.4997 39.6924 75.6813 39.84C75.4557 41.3011 74.5621 42.8164 73.3637 43.5952C72.4005 44.2208 71.2333 44.8404 70.0069 44.3724C68.9981 44.0167 68.3573 43.0006 67.9637 42.0683C67.5469 41.0818 67.2693 39.9445 67.4637 38.8652C68.5701 38.9644 69.4877 39.7571 69.9741 40.7242Z" fill="#8B888A"/>
  <path d="M67.8364 47.8963C68.4764 46.9219 68.6996 45.7022 68.438 44.5573C68.19 43.4728 67.4356 42.4823 66.3356 42.1743C65.8772 43.2193 65.8692 44.4346 66.0356 45.5368C66.1908 46.5566 66.57 47.7467 67.5124 48.3155C68.6764 49.0538 70.0356 48.6171 71.1516 48.1755C72.5916 47.606 73.8916 46.2276 74.4996 44.7464C73.2412 44.3476 71.9548 45.0057 70.906 45.5513C69.8212 46.1158 68.6884 46.9209 67.8364 47.8963Z" fill="#8B888A"/>
  <path d="M63.0234 48.6992C62.8834 49.7627 62.8858 51.1117 63.7114 51.9312C64.7418 52.9883 66.3394 52.7856 67.5714 52.554C69.2258 52.243 71.0882 51.1163 72.0874 49.6153C70.8698 48.9436 69.3786 49.3715 68.1722 49.718L68.1026 49.7378C66.7562 50.1241 65.321 50.7468 64.1202 51.5981C65.0786 50.7334 65.777 49.4642 65.8122 48.1844C65.8442 47.0393 65.3482 45.8138 64.2794 45.2671C63.5314 46.2466 63.181 47.5048 63.0234 48.6992Z" fill="#8B888A"/>
  <path d="M62.099 56.4901C60.7774 56.4622 58.9638 56.3045 58.2246 54.9391L58.2142 54.9204C57.6238 53.7662 58.2238 52.4173 58.7022 51.4189C59.271 50.2321 60.0478 49.0228 61.1582 48.1548C62.2238 49.0741 62.1206 50.3883 61.803 51.5302C61.4246 52.8881 60.1174 54.0451 58.7638 54.7037C60.331 54.1207 62.0422 53.7713 63.6702 53.6689L63.8358 53.6584C65.1438 53.5742 66.8462 53.4648 67.887 54.4224C66.3102 55.7605 64.0718 56.5317 62.099 56.4901Z" fill="#8B888A"/>
</svg>