<svg xmlns="http://www.w3.org/2000/svg" width="107" height="30" viewBox="0 0 107 30" fill="none">
  <path d="M36.543 19.6135H38.8623V8.69897H36.543V19.6135Z" fill="#8B888A"/>
  <path d="M43.6202 19.8563C46.0456 19.8563 47.6373 18.2949 47.6373 15.5359C47.6373 12.8679 46.0911 11.2004 43.6202 11.2004C41.1947 11.2004 39.6182 12.7618 39.6182 15.5359C39.6182 18.2191 41.1492 19.8563 43.6202 19.8563ZM43.6202 17.9766C42.5742 17.9766 41.9981 17.1125 41.9981 15.5359C41.9981 13.9442 42.559 13.0802 43.6202 13.0802C44.6813 13.0802 45.2573 13.9594 45.2573 15.5359C45.2573 17.1276 44.6965 17.9766 43.6202 17.9766Z" fill="#8B888A"/>
  <path d="M51.4107 19.6289C52.2899 19.6289 53.0176 19.2651 53.533 18.5526V19.9169C53.533 21.0538 52.9721 21.4328 52.1383 21.4328C51.3349 21.4328 50.7134 21.0387 50.6224 20.3111H48.3031C48.5911 22.2969 50.0919 23.2064 52.1687 23.2064C54.3061 23.2064 55.8523 22.0695 55.8523 19.8866V11.4581H53.533V12.2161C53.0327 11.5491 52.3203 11.2004 51.4107 11.2004C49.3794 11.2004 48.0605 12.7163 48.0605 15.4298C48.0605 18.022 49.3491 19.6289 51.4107 19.6289ZM51.9716 17.7492C50.9711 17.7492 50.4405 16.9154 50.4405 15.4298C50.4405 13.8988 50.9711 13.0802 51.9716 13.0802C52.9872 13.0802 53.533 13.9139 53.533 15.4147C53.533 16.9306 53.0024 17.7492 51.9716 17.7492Z" fill="#8B888A"/>
  <path d="M60.6231 19.8563C63.0485 19.8563 64.6403 18.2949 64.6403 15.5359C64.6403 12.8679 63.094 11.2004 60.6231 11.2004C58.1976 11.2004 56.6211 12.7618 56.6211 15.5359C56.6211 18.2191 58.1522 19.8563 60.6231 19.8563ZM60.6231 17.9766C59.5771 17.9766 59.0011 17.1125 59.0011 15.5359C59.0011 13.9442 59.562 13.0802 60.6231 13.0802C61.6842 13.0802 62.2603 13.9594 62.2603 15.5359C62.2603 17.1276 61.6994 17.9766 60.6231 17.9766Z" fill="#8B888A"/>
  <path d="M65.4121 10.6393H67.7317V8.69897H65.4121V10.6393ZM65.4121 19.6135H67.7317V11.4579H65.4121V19.6135Z" fill="#8B888A"/>
  <path d="M71.1553 22.9639V18.7951C71.6404 19.4925 72.3377 19.8563 73.2018 19.8563C75.2786 19.8563 76.6277 18.2949 76.6277 15.5208C76.6277 12.8528 75.3089 11.2004 73.2018 11.2004C72.3528 11.2004 71.6555 11.5946 71.1553 12.3071V11.4581H68.8359V22.9639H71.1553ZM72.7167 13.0802C73.702 13.0802 74.2477 13.9442 74.2477 15.5208C74.2477 17.1125 73.7172 17.9766 72.7167 17.9766C71.701 17.9766 71.1553 17.0973 71.1553 15.5208C71.1553 13.9442 71.6858 13.0802 72.7167 13.0802Z" fill="#8B888A"/>
  <path d="M79.4132 13.7168C79.4132 13.2772 79.8074 12.9741 80.4137 12.9741C81.2323 12.9741 81.7174 13.3227 81.8538 14.1565H84.158C83.9306 12.0948 82.445 11.2004 80.4895 11.2004C78.3066 11.2004 77.2 12.4738 77.2 13.8381C77.2 17.1125 82.1419 15.7027 82.1419 17.2792C82.1419 17.7795 81.7326 18.0978 80.914 18.0978C80.0499 18.0978 79.4284 17.6885 79.3223 16.9306H77.0029C77.3061 18.9467 78.7917 19.8563 80.8533 19.8563C82.9756 19.8563 84.4612 18.7497 84.4612 17.1428C84.4612 13.9139 79.4132 15.3237 79.4132 13.7168Z" fill="#8B888A"/>
  <path d="M90.1754 16.1422C90.1754 17.1881 89.5993 17.9764 88.7049 17.9764C87.8863 17.9764 87.4922 17.461 87.4922 16.415V11.458H85.1729V16.885C85.1729 18.9163 86.3098 19.8561 87.856 19.8561C88.8414 19.8561 89.6448 19.4317 90.1754 18.5221V19.6136H92.4947V11.458H90.1754V16.1422Z" fill="#8B888A"/>
  <path d="M93.6152 19.6137H95.9346V14.9296C95.9346 13.8836 96.4651 13.0802 97.2686 13.0802C98.0114 13.0802 98.3752 13.6107 98.3752 14.6416V19.6137H100.679V14.9296C100.679 13.8836 101.225 13.0802 102.029 13.0802C102.771 13.0802 103.12 13.6107 103.12 14.6416V19.6137H105.439V14.1716C105.439 12.1555 104.318 11.2004 102.802 11.2004C101.786 11.2004 100.922 11.6249 100.361 12.5496C99.9517 11.6401 99.1331 11.2004 98.163 11.2004C97.2231 11.2004 96.45 11.6097 95.9346 12.489V11.4581H93.6152V19.6137Z" fill="#8B888A"/>
  <path d="M27.7475 22.9437C30.26 20.7001 31.8007 17.6724 31.8007 14.3408C31.8007 7.42474 25.1613 1.81812 16.9711 1.81812C8.78102 1.81812 2.1416 7.42474 2.1416 14.3408C2.1416 21.2569 8.78102 26.8636 16.9711 26.8636C19.2946 26.8636 21.4934 26.4124 23.4511 25.6079C25.7508 27.0274 28.5683 28.0478 31.68 27.8326C30.0361 27.4147 28.6221 25.722 27.7475 22.9437Z" fill="#8B888A"/>
  <path d="M27.8457 14.3408C27.8457 19.4369 22.9768 23.5681 16.9707 23.5681C10.9646 23.5681 6.0957 19.4369 6.0957 14.3408C6.0957 9.24471 10.9646 5.11353 16.9707 5.11353C22.9768 5.11353 27.8457 9.24471 27.8457 14.3408Z" fill="#6A6969"/>
  <path d="M23.8917 14.341C23.8917 17.6171 20.7933 20.2728 16.9712 20.2728C13.1492 20.2728 10.0508 17.6171 10.0508 14.341C10.0508 11.0649 13.1492 8.40918 16.9712 8.40918C20.7933 8.40918 23.8917 11.0649 23.8917 14.341Z" fill="#5E5E5E"/>
</svg>