<svg xmlns="http://www.w3.org/2000/svg" width="127" height="28" viewBox="0 0 127 28" fill="none">
  <path d="M37.1489 18.687C37.1489 19.2982 37.0234 19.7679 36.7725 20.096C36.5281 20.4241 36.1195 20.5882 35.5469 20.5882C35.0064 20.5882 34.6236 20.4241 34.3984 20.096C34.1797 19.7679 34.0703 19.2982 34.0703 18.687V8.48617C34.0703 7.87495 34.1797 7.40528 34.3984 7.07715C34.6236 6.74902 35.0064 6.58496 35.5469 6.58496C36.1195 6.58496 36.5281 6.74902 36.7725 7.07715C37.0234 7.40528 37.1489 7.87495 37.1489 8.48617V18.687Z" fill="#8B888A"/>
  <path d="M38.083 15.7243C38.083 15.0423 38.1924 14.399 38.4112 13.7942C38.6363 13.1829 38.9709 12.649 39.4148 12.1921C39.8652 11.7353 40.425 11.3718 41.0941 11.1016C41.7696 10.8313 42.5609 10.6963 43.4681 10.6963C44.3367 10.6963 45.1056 10.8217 45.7747 11.0726C46.4438 11.3236 47.0068 11.6742 47.4635 12.1246C47.9203 12.5685 48.2678 13.0993 48.5058 13.7169C48.7438 14.3281 48.8629 14.9973 48.8629 15.7243C48.8629 16.3999 48.7503 17.04 48.5251 17.6448C48.3 18.2431 47.9622 18.7707 47.5118 19.2276C47.0615 19.6779 46.4985 20.0382 45.8229 20.3084C45.1473 20.5722 44.3624 20.7041 43.4681 20.7041C42.5867 20.7041 41.8082 20.5786 41.1326 20.3277C40.4635 20.0704 39.9006 19.7197 39.4438 19.2757C38.9934 18.8254 38.6524 18.2979 38.4208 17.6931C38.1956 17.0819 38.083 16.4256 38.083 15.7243ZM41.2967 15.7243C41.2967 16.149 41.3353 16.5543 41.4125 16.9403C41.4897 17.3199 41.612 17.6545 41.7793 17.944C41.9529 18.2335 42.1782 18.4651 42.4548 18.6388C42.7315 18.8061 43.0692 18.8897 43.4681 18.8897C43.8349 18.8897 44.1533 18.8126 44.4235 18.6581C44.7002 18.5038 44.9254 18.2882 45.0992 18.0115C45.2793 17.7349 45.4144 17.4035 45.5044 17.0175C45.5945 16.625 45.6395 16.194 45.6395 15.7243C45.6395 15.2997 45.5977 14.8975 45.5141 14.518C45.4369 14.132 45.3115 13.7942 45.1377 13.5046C44.964 13.2087 44.7389 12.9771 44.4621 12.8098C44.1919 12.6361 43.8606 12.5492 43.4681 12.5492C43.0757 12.5492 42.7411 12.6328 42.4644 12.8002C42.1878 12.9674 41.9627 13.1958 41.7889 13.4853C41.6152 13.7749 41.4897 14.1126 41.4125 14.4987C41.3353 14.8847 41.2967 15.2932 41.2967 15.7243Z" fill="#8B888A"/>
  <path d="M56.7846 18.7257C56.6109 19.0474 56.3986 19.3208 56.1476 19.546C55.9032 19.7712 55.6297 19.9578 55.3274 20.1058C55.0314 20.2473 54.713 20.3534 54.3719 20.4242C54.0373 20.4886 53.6932 20.5208 53.3393 20.5208C52.7474 20.5208 52.207 20.4146 51.718 20.2022C51.229 19.9899 50.8076 19.6843 50.4538 19.2855C50.1063 18.8801 49.8361 18.3847 49.6431 17.7992C49.45 17.2137 49.3535 16.5446 49.3535 15.7919C49.3535 15.0842 49.4436 14.4215 49.6238 13.8038C49.8039 13.1862 50.0645 12.649 50.4055 12.1922C50.7529 11.7354 51.1776 11.3751 51.6794 11.1113C52.1812 10.8475 52.7539 10.7156 53.3972 10.7156C54.1306 10.7156 54.7805 10.8571 55.3467 11.1402C55.9193 11.4233 56.4115 11.8866 56.8233 12.5299V12.279C56.8233 11.8158 56.9487 11.4684 57.1996 11.2367C57.457 10.9987 57.8108 10.8796 58.2612 10.8796C58.5314 10.8796 58.7598 10.9247 58.9464 11.0148C59.1329 11.0984 59.2809 11.2271 59.3903 11.4008C59.4997 11.5681 59.5769 11.7772 59.6219 12.0281C59.6734 12.2725 59.6991 12.5525 59.6991 12.8677V19.3337C59.6991 20.1186 59.5995 20.8199 59.4 21.4375C59.207 22.0552 58.9046 22.5764 58.4928 23.001C58.081 23.4256 57.5535 23.7473 56.9101 23.9661C56.2667 24.1912 55.5011 24.3038 54.6132 24.3038C53.9892 24.3038 53.4358 24.2749 52.9532 24.2169C52.4772 24.1655 52.0654 24.0851 51.718 23.9757C51.3706 23.8534 51.1068 23.7184 50.9266 23.5704C50.7529 23.4224 50.6661 23.2294 50.6661 22.9914C50.6661 22.8562 50.6853 22.7276 50.724 22.6053C50.7626 22.4831 50.8205 22.3737 50.8976 22.2772C50.9813 22.1871 51.0875 22.1131 51.2162 22.0552C51.3512 22.0038 51.5153 21.978 51.7083 21.978C51.9142 21.978 52.1201 21.9908 52.326 22.0166C52.5383 22.0423 52.7571 22.0681 52.9822 22.0938C53.2138 22.126 53.4551 22.1549 53.706 22.1807C53.9634 22.2064 54.24 22.2193 54.536 22.2193C54.8899 22.2193 55.2051 22.1839 55.4818 22.1131C55.7584 22.0423 55.9932 21.9169 56.1863 21.7367C56.3793 21.5566 56.5273 21.3153 56.6302 21.0129C56.7332 20.7169 56.7846 20.3374 56.7846 19.8741V18.7257ZM56.7846 15.7244C56.7846 15.2546 56.7492 14.8268 56.6785 14.4408C56.6142 14.0547 56.5015 13.7266 56.3407 13.4564C56.1798 13.1797 55.9643 12.9674 55.6941 12.8194C55.4238 12.665 55.0861 12.5879 54.6808 12.5879C54.2818 12.5879 53.9505 12.6682 53.6868 12.8291C53.4294 12.9899 53.2235 13.2119 53.0691 13.495C52.9147 13.7781 52.8053 14.1094 52.7409 14.4891C52.683 14.8686 52.6541 15.274 52.6541 15.705C52.6541 16.6894 52.8278 17.4293 53.1753 17.9247C53.5226 18.4201 54.0277 18.6678 54.6904 18.6678C54.9992 18.6614 55.2791 18.6034 55.53 18.4941C55.7873 18.3783 56.0094 18.2014 56.1959 17.9633C56.3825 17.7252 56.5273 17.4228 56.6302 17.0561C56.7332 16.6894 56.7846 16.2455 56.7846 15.7244Z" fill="#8B888A"/>
  <path d="M60.5859 15.7243C60.5859 15.0423 60.6953 14.399 60.914 13.7942C61.1393 13.1829 61.4738 12.649 61.9177 12.1921C62.3681 11.7353 62.9278 11.3718 63.5969 11.1016C64.2725 10.8313 65.0639 10.6963 65.9711 10.6963C66.8396 10.6963 67.6084 10.8217 68.2775 11.0726C68.9467 11.3236 69.5096 11.6742 69.9664 12.1246C70.4232 12.5685 70.7707 13.0993 71.0087 13.7169C71.2468 14.3281 71.3658 14.9973 71.3658 15.7243C71.3658 16.3999 71.2532 17.04 71.028 17.6448C70.8028 18.2431 70.4651 18.7707 70.0147 19.2276C69.5643 19.6779 69.0013 20.0382 68.3258 20.3084C67.6503 20.5722 66.8653 20.7041 65.9711 20.7041C65.0896 20.7041 64.3111 20.5786 63.6355 20.3277C62.9664 20.0704 62.4035 19.7197 61.9467 19.2757C61.4963 18.8254 61.1553 18.2979 60.9237 17.6931C60.6985 17.0819 60.5859 16.4256 60.5859 15.7243ZM63.7996 15.7243C63.7996 16.149 63.8382 16.5543 63.9155 16.9403C63.9926 17.3199 64.1148 17.6545 64.2822 17.944C64.4559 18.2335 64.681 18.4651 64.9577 18.6388C65.2343 18.8061 65.5722 18.8897 65.9711 18.8897C66.3378 18.8897 66.6562 18.8126 66.9264 18.6581C67.2031 18.5038 67.4283 18.2882 67.602 18.0115C67.7822 17.7349 67.9172 17.4035 68.0073 17.0175C68.0974 16.625 68.1425 16.194 68.1425 15.7243C68.1425 15.2997 68.1006 14.8975 68.017 14.518C67.9398 14.132 67.8143 13.7942 67.6406 13.5046C67.4669 13.2087 67.2417 12.9771 66.9651 12.8098C66.6949 12.6361 66.3635 12.5492 65.9711 12.5492C65.5786 12.5492 65.244 12.6328 64.9674 12.8002C64.6907 12.9674 64.4655 13.1958 64.2918 13.4853C64.1181 13.7749 63.9926 14.1126 63.9155 14.4987C63.8382 14.8847 63.7996 15.2932 63.7996 15.7243Z" fill="#8B888A"/>
  <path d="M75.5039 7.44383C75.5039 7.65615 75.4557 7.84594 75.3592 8.01323C75.2627 8.17407 75.1372 8.30915 74.9828 8.41859C74.8284 8.52796 74.6482 8.61155 74.4423 8.66944C74.243 8.72091 74.0371 8.74669 73.8247 8.74669C73.5995 8.74669 73.384 8.7177 73.1781 8.65981C72.9787 8.60191 72.8018 8.51832 72.6474 8.40888C72.493 8.29309 72.3707 8.15477 72.2806 7.99392C72.1906 7.83308 72.1455 7.64971 72.1455 7.44383C72.1455 7.25725 72.1873 7.08676 72.2709 6.93235C72.361 6.7715 72.48 6.63317 72.628 6.51736C72.776 6.40156 72.953 6.31148 73.1589 6.24714C73.3647 6.1828 73.5899 6.15063 73.8344 6.15063C74.0467 6.15063 74.2526 6.17959 74.4521 6.23749C74.6579 6.29539 74.838 6.37903 74.9924 6.48841C75.1469 6.59779 75.2692 6.73289 75.3592 6.89374C75.4557 7.05459 75.5039 7.23795 75.5039 7.44383ZM75.3592 18.6869C75.3592 19.2982 75.2337 19.7678 74.9828 20.0959C74.7383 20.4241 74.3298 20.5881 73.7572 20.5881C73.2168 20.5881 72.8339 20.4241 72.6087 20.0959C72.39 19.7678 72.2806 19.2982 72.2806 18.6869V12.7807C72.2806 12.1694 72.39 11.6998 72.6087 11.3717C72.8339 11.0436 73.2168 10.8795 73.7572 10.8795C74.3298 10.8795 74.7383 11.0436 74.9828 11.3717C75.2337 11.6998 75.3592 12.1694 75.3592 12.7807V18.6869Z" fill="#8B888A"/>
  <path d="M79.7972 15.705C79.7972 16.1361 79.8293 16.5382 79.8937 16.9114C79.9645 17.2845 80.0803 17.6126 80.2411 17.8958C80.4084 18.1724 80.6272 18.3911 80.8974 18.552C81.174 18.7129 81.515 18.7932 81.9204 18.7932C82.2935 18.7932 82.6055 18.7161 82.8567 18.5617C83.1137 18.4008 83.3195 18.182 83.4744 17.9054C83.6284 17.6223 83.7379 17.291 83.8021 16.9114C83.873 16.5318 83.9084 16.12 83.9084 15.6761C83.9084 15.3222 83.8828 14.9619 83.831 14.5952C83.7799 14.222 83.6835 13.8843 83.5419 13.5819C83.4002 13.2795 83.2042 13.0318 82.9531 12.8387C82.7019 12.6458 82.3741 12.5492 81.9686 12.5492C81.5633 12.5492 81.219 12.6136 80.936 12.7423C80.6593 12.8709 80.4341 13.0672 80.2605 13.3309C80.0931 13.5947 79.9741 13.9261 79.9034 14.3249C79.8326 14.7174 79.7972 15.1775 79.7972 15.705ZM79.7876 12.7808C79.9484 12.4399 80.1543 12.1407 80.4052 11.8833C80.6561 11.626 80.9328 11.4105 81.2352 11.2367C81.5376 11.063 81.8528 10.9343 82.1809 10.8507C82.5158 10.7606 82.8468 10.7156 83.1746 10.7156C83.7667 10.7156 84.3012 10.8475 84.7772 11.1113C85.2532 11.3751 85.6584 11.7354 85.9927 12.1922C86.3337 12.6426 86.5947 13.1765 86.7751 13.7942C86.9546 14.4054 87.0452 15.0617 87.0452 15.7629C87.0452 16.4899 86.948 17.1558 86.7553 17.7606C86.5692 18.3654 86.3015 18.8866 85.954 19.324C85.6131 19.7551 85.2013 20.0929 84.7187 20.3374C84.2427 20.5819 83.7124 20.7041 83.1268 20.7041C82.4062 20.7041 81.7627 20.5368 81.1966 20.2022C80.6304 19.8677 80.1607 19.398 79.7876 18.7932V22.2676C79.7876 22.8787 79.6621 23.3484 79.4112 23.6765C79.1666 24.0046 78.7582 24.1688 78.1855 24.1688C77.6451 24.1688 77.2622 24.0046 77.0371 23.6765C76.8184 23.3484 76.709 22.8787 76.709 22.2676V12.7808C76.709 12.1696 76.8184 11.6999 77.0371 11.3718C77.2622 11.0438 77.6451 10.8796 78.1855 10.8796C78.7582 10.8796 79.1666 11.0438 79.4112 11.3718C79.6621 11.6999 79.7876 12.1696 79.7876 12.7808Z" fill="#8B888A"/>
  <path d="M90.4405 13.4661C90.4405 13.7169 90.55 13.9132 90.7683 14.0547C90.9873 14.1899 91.2896 14.3024 91.6758 14.3925C92.0423 14.4761 92.4186 14.5566 92.8049 14.6337C93.1911 14.711 93.5675 14.8011 93.9339 14.904C94.3004 15.0005 94.6446 15.1163 94.9666 15.2514C95.2878 15.3865 95.5711 15.557 95.8157 15.7629C96.0603 15.9623 96.253 16.2069 96.3946 16.4963C96.5363 16.7795 96.6071 17.1205 96.6071 17.5193C96.6071 18.0212 96.5042 18.4683 96.2983 18.8608C96.0924 19.2468 95.8 19.5749 95.4204 19.8452C95.0473 20.1154 94.6002 20.3245 94.0789 20.4725C93.5576 20.6205 92.9819 20.6976 92.3511 20.7041C91.7532 20.7041 91.1767 20.6655 90.6233 20.5883C90.0707 20.5175 89.5783 20.4049 89.1468 20.2505C88.7226 20.0961 88.3817 19.9063 88.1239 19.6811C87.867 19.4495 87.7385 19.1793 87.7385 18.8705C87.7385 18.6002 87.825 18.3911 87.9988 18.2431C88.1725 18.0952 88.394 18.0212 88.665 18.0212C88.7679 18.0212 88.8898 18.0404 89.0315 18.0791C89.1731 18.1177 89.3271 18.1659 89.4943 18.2238C89.6615 18.2817 89.8385 18.3461 90.0255 18.4169C90.2182 18.4812 90.4175 18.5391 90.6233 18.5906C90.8811 18.6614 91.1446 18.7193 91.4147 18.7643C91.6915 18.8029 91.9748 18.8222 92.2646 18.8222C92.4442 18.8222 92.6212 18.8061 92.795 18.774C92.9688 18.7353 93.1236 18.6807 93.2586 18.6099C93.4003 18.5327 93.5156 18.4361 93.6062 18.3204C93.6959 18.2046 93.7503 18.063 93.77 17.8957C93.789 17.8571 93.8055 17.8185 93.8178 17.7799C93.831 17.7413 93.8376 17.6963 93.8376 17.6448C93.8376 17.4646 93.7536 17.3038 93.5864 17.1622C93.4258 17.0207 93.1969 16.9081 92.9012 16.8245C92.4055 16.7087 91.9327 16.6026 91.4823 16.506C91.0326 16.4095 90.6143 16.3066 90.228 16.1972C89.8484 16.0879 89.5009 15.9623 89.1855 15.8208C88.8766 15.6793 88.6131 15.5055 88.394 15.2997C88.1824 15.0938 88.0144 14.8461 87.8925 14.5566C87.7764 14.267 87.7188 13.9164 87.7188 13.5046C87.7188 13.0607 87.8184 12.665 88.0177 12.3176C88.2236 11.9637 88.5168 11.6678 88.8964 11.4297C89.276 11.1916 89.7356 11.0115 90.2766 10.8893C90.8169 10.7606 91.4279 10.6963 92.1098 10.6963C93.3319 10.6963 94.2617 10.8443 94.8991 11.1402C95.5423 11.4297 95.8643 11.8093 95.8643 12.279C95.8643 12.5428 95.777 12.7455 95.6032 12.887C95.4295 13.0221 95.2203 13.0896 94.9765 13.0896C94.8472 13.0896 94.7122 13.0671 94.5705 13.0221C94.4355 12.9706 94.2716 12.9159 94.0789 12.8581C93.8853 12.7937 93.6539 12.7391 93.3838 12.694C93.1203 12.6425 92.7917 12.6168 92.3997 12.6168C92.1032 12.6168 91.8331 12.6296 91.5885 12.6554C91.3505 12.6811 91.1446 12.7261 90.9709 12.7904C90.8037 12.8548 90.6719 12.9416 90.5756 13.0511C90.485 13.1605 90.4405 13.2987 90.4405 13.4661Z" fill="#8B888A"/>
  <path d="M100.524 17.0079C100.524 17.3103 100.562 17.574 100.64 17.7993C100.723 18.0244 100.836 18.2142 100.977 18.3687C101.119 18.5166 101.283 18.6292 101.469 18.7064C101.663 18.7772 101.868 18.8126 102.087 18.8126C102.344 18.8126 102.592 18.774 102.83 18.6967C103.068 18.6196 103.278 18.5005 103.458 18.3397C103.644 18.1788 103.792 17.9762 103.902 17.7317C104.01 17.4872 104.066 17.2009 104.066 16.8728V12.7808C104.066 12.1696 104.175 11.7 104.393 11.3719C104.619 11.0438 105.002 10.8796 105.542 10.8796C106.115 10.8796 106.523 11.0438 106.768 11.3719C107.019 11.7 107.144 12.1696 107.144 12.7808V18.6871C107.144 19.2983 107.019 19.768 106.768 20.0961C106.523 20.4243 106.115 20.5883 105.542 20.5883C105.002 20.5883 104.619 20.4243 104.393 20.0961C104.175 19.768 104.066 19.2983 104.066 18.6871C103.931 18.9831 103.754 19.2533 103.534 19.4978C103.322 19.7423 103.072 19.9546 102.782 20.1347C102.498 20.3085 102.184 20.4435 101.836 20.5401C101.495 20.6366 101.125 20.6848 100.726 20.6848C100.296 20.6848 99.8805 20.6108 99.4811 20.4629C99.0891 20.3085 98.7415 20.0832 98.4393 19.7873C98.1371 19.4849 97.8958 19.1117 97.7154 18.6678C97.5351 18.2239 97.4453 17.706 97.4453 17.114V12.7808C97.4453 12.1696 97.5548 11.7 97.7731 11.3719C97.9987 11.0438 98.3808 10.8796 98.9219 10.8796C99.4943 10.8796 99.9027 11.0438 100.147 11.3719C100.398 11.7 100.524 12.1696 100.524 12.7808V17.0079Z" fill="#8B888A"/>
  <path d="M108.542 12.7808C108.542 12.1696 108.652 11.6999 108.871 11.3718C109.095 11.0438 109.478 10.8796 110.019 10.8796C110.592 10.8796 111 11.0438 111.245 11.3718C111.495 11.6999 111.621 12.1696 111.621 12.7808C111.75 12.472 111.923 12.1922 112.142 11.9412C112.367 11.6839 112.622 11.4652 112.904 11.285C113.194 11.1049 113.506 10.9665 113.841 10.87C114.175 10.767 114.522 10.7156 114.883 10.7156C115.218 10.7156 115.545 10.7606 115.867 10.8507C116.195 10.9343 116.498 11.0727 116.775 11.2657C117.057 11.4522 117.305 11.6903 117.518 11.9799C117.73 12.2693 117.894 12.6168 118.01 13.0221C118.209 12.5911 118.444 12.2276 118.714 11.9316C118.984 11.6356 119.278 11.3975 119.592 11.2174C119.908 11.0372 120.236 10.9086 120.577 10.8314C120.925 10.7542 121.271 10.7156 121.619 10.7156C122.031 10.7156 122.423 10.7896 122.796 10.9375C123.176 11.0855 123.507 11.3107 123.79 11.6131C124.08 11.909 124.308 12.2855 124.476 12.7423C124.649 13.1926 124.736 13.7202 124.736 14.3249V18.6871C124.736 19.2983 124.611 19.768 124.36 20.0961C124.116 20.4242 123.706 20.5883 123.134 20.5883C122.594 20.5883 122.211 20.4242 121.986 20.0961C121.767 19.768 121.658 19.2983 121.658 18.6871V14.4601C121.658 14.1705 121.619 13.9132 121.542 13.688C121.465 13.4564 121.355 13.2634 121.214 13.109C121.079 12.9482 120.918 12.8291 120.731 12.7519C120.545 12.6682 120.345 12.6264 120.133 12.6264C119.869 12.6264 119.618 12.6682 119.38 12.7519C119.142 12.8355 118.933 12.9642 118.753 13.1379C118.579 13.3117 118.438 13.5336 118.328 13.8038C118.225 14.074 118.174 14.399 118.174 14.7785V18.6871C118.174 19.2983 118.048 19.768 117.798 20.0961C117.553 20.4242 117.145 20.5883 116.571 20.5883C116.031 20.5883 115.648 20.4242 115.423 20.0961C115.204 19.768 115.095 19.2983 115.095 18.6871V14.6434C115.095 13.9808 114.956 13.4789 114.681 13.1379C114.41 12.797 114.04 12.6264 113.57 12.6264C113.294 12.6264 113.036 12.6715 112.798 12.7616C112.56 12.8516 112.354 12.9835 112.18 13.1573C112.007 13.3309 111.868 13.5465 111.765 13.8038C111.669 14.0612 111.621 14.3571 111.621 14.6917V18.6871C111.621 19.2983 111.495 19.768 111.245 20.0961C111 20.4242 110.592 20.5883 110.019 20.5883C109.478 20.5883 109.095 20.4242 108.871 20.0961C108.652 19.768 108.542 19.2983 108.542 18.6871V12.7808Z" fill="#8B888A"/>
  <path d="M13.9998 18.9412C11.2708 18.9412 9.05859 16.7289 9.05859 14C9.05859 11.2711 11.2708 9.05884 13.9998 9.05884C16.7287 9.05884 18.9409 11.2711 18.9409 14C18.9409 16.7289 16.7287 18.9412 13.9998 18.9412Z" fill="#8B888A"/>
  <path d="M4.42785 15.6879C2.99594 15.9404 2.01444 17.3236 2.5641 18.6697C3.3315 20.549 4.55578 22.2234 6.14298 23.5318C8.41255 25.4026 11.2751 26.4023 14.216 26.351C17.1568 26.2997 19.9828 25.2007 22.1858 23.2517C23.7262 21.8888 24.8914 20.1726 25.5928 18.2677C26.0951 16.9032 25.0659 15.5551 23.626 15.3528C22.1862 15.1504 20.8935 16.1985 20.1823 17.4667C19.7968 18.1541 19.2963 18.7777 18.6968 19.3082C17.4328 20.4265 15.8114 21.0569 14.1241 21.0864C12.4368 21.1158 10.7944 20.5423 9.4922 19.4689C8.87447 18.9597 8.3526 18.3539 7.94332 17.6803C7.18832 16.4377 5.85976 15.4354 4.42785 15.6879Z" fill="#8B888A"/>
  <path d="M26.2578 15.5436C26.3209 15.0379 26.3533 14.5227 26.3533 13.9999C26.3533 7.17757 20.8228 1.64697 14.0004 1.64697C7.17806 1.64697 1.64746 7.17757 1.64746 13.9999C1.64746 14.6708 1.70095 15.3293 1.8039 15.9712C2.37129 15.1944 3.25685 14.64 4.21338 14.4713C5.2483 14.2888 6.18888 14.5398 6.98415 15.009C6.93717 14.6794 6.91286 14.3425 6.91286 13.9999C6.91286 10.0856 10.0861 6.91237 14.0004 6.91237C17.9147 6.91237 21.0879 10.0856 21.0879 13.9999C21.0879 14.258 21.0741 14.5129 21.0473 14.7638C21.8257 14.267 22.7572 13.9831 23.798 14.1295C24.7596 14.2646 25.6636 14.7875 26.2578 15.5436Z" fill="#8B888A"/>
</svg>